<svg width="25" height="31" viewBox="0 0 25 31" fill="none" xmlns="http://www.w3.org/2000/svg">
<path d="M23.5039 6.35758L18.2601 1.51814C17.6986 0.998617 16.9365 0.706092 16.1414 0.704834H3.38513C2.58921 0.707274 1.82674 1.00055 1.26452 1.5205C0.702308 2.04045 0.386119 2.74474 0.385132 3.47929L0.385132 27.4746C0.385132 28.2089 0.701202 28.9131 1.26381 29.4324C1.82642 29.9516 2.58948 30.2433 3.38513 30.2433H21.3851C22.1808 30.2433 22.9438 29.9516 23.5065 29.4324C24.0691 28.9131 24.3851 28.2089 24.3851 27.4746V8.31873C24.3839 7.5832 24.067 6.87807 23.5039 6.35758ZM22.0914 7.66694C22.2197 7.78426 22.3105 7.93194 22.3539 8.09378H16.3851V2.58524C16.5605 2.62524 16.7205 2.70906 16.8476 2.8275L22.0914 7.66694ZM21.3851 28.3975H3.38513C3.11992 28.3975 2.86556 28.3003 2.67803 28.1272C2.49049 27.9541 2.38513 27.7194 2.38513 27.4746V3.47929C2.38513 3.23452 2.49049 2.99978 2.67803 2.82671C2.86556 2.65363 3.11992 2.5564 3.38513 2.5564H14.3851V8.55522C14.3846 8.73715 14.4231 8.91737 14.4983 9.08553C14.5735 9.25369 14.684 9.40648 14.8234 9.53512C14.9628 9.66376 15.1283 9.76571 15.3105 9.83512C15.4927 9.90453 15.688 9.94003 15.8851 9.93957H22.3851V27.4746C22.3851 27.7194 22.2798 27.9541 22.0922 28.1272C21.9047 28.3003 21.6503 28.3975 21.3851 28.3975ZM18.3851 18.0149V18.4764C18.3851 18.6599 18.3061 18.836 18.1655 18.9658C18.0248 19.0956 17.834 19.1685 17.6351 19.1685H13.3851V23.0908C13.3851 23.2744 13.3061 23.4505 13.1655 23.5803C13.0248 23.7101 12.834 23.783 12.6351 23.783H12.1351C11.9362 23.783 11.7455 23.7101 11.6048 23.5803C11.4641 23.4505 11.3851 23.2744 11.3851 23.0908V19.1685H7.13513C6.93622 19.1685 6.74545 19.0956 6.6048 18.9658C6.46415 18.836 6.38513 18.6599 6.38513 18.4764V18.0149C6.38513 17.8313 6.46415 17.6553 6.6048 17.5255C6.74545 17.3957 6.93622 17.3227 7.13513 17.3227H11.3851V13.4004C11.3851 13.2169 11.4641 13.0408 11.6048 12.911C11.7455 12.7812 11.9362 12.7083 12.1351 12.7083H12.6351C12.834 12.7083 13.0248 12.7812 13.1655 12.911C13.3061 13.0408 13.3851 13.2169 13.3851 13.4004V17.3227H17.6351C17.834 17.3227 18.0248 17.3957 18.1655 17.5255C18.3061 17.6553 18.3851 17.8313 18.3851 18.0149Z" fill="#FFFFFF"/>
</svg>
