<svg width="273" height="64" viewBox="0 0 273 64" fill="none" xmlns="http://www.w3.org/2000/svg">
<path d="M100.043 34.9781V49.0667H93.4542V11.15H107.959C112.195 11.15 115.555 12.2524 118.037 14.4573C120.537 16.6622 121.787 19.5788 121.787 23.2073C121.787 26.9226 120.564 29.8132 118.116 31.8792C115.685 33.9451 112.274 34.9781 107.881 34.9781H100.043ZM100.043 29.6917H107.959C110.303 29.6917 112.091 29.1448 113.324 28.051C114.557 26.9399 115.173 25.3427 115.173 23.2594C115.173 21.2108 114.548 19.5788 113.298 18.3635C112.048 17.1309 110.329 16.4972 108.142 16.4625H100.043V29.6917Z" fill="white"/>
<path d="M133.689 49.0667H127.36V9.06667H133.689V49.0667Z" fill="white"/>
<path d="M157.439 49.0667C157.161 48.5285 156.918 47.6517 156.709 46.4365C154.695 48.5371 152.23 49.5875 149.314 49.5875C146.484 49.5875 144.175 48.7802 142.386 47.1656C140.598 45.551 139.704 43.5545 139.704 41.176C139.704 38.1726 140.815 35.8722 143.037 34.275C145.277 32.6604 148.472 31.8531 152.621 31.8531H156.501V30.0042C156.501 28.5458 156.093 27.3826 155.277 26.5146C154.461 25.6292 153.22 25.1865 151.553 25.1865C150.112 25.1865 148.932 25.551 148.011 26.2802C147.091 26.992 146.631 27.9035 146.631 29.0146H140.303C140.303 27.4694 140.815 26.0285 141.84 24.6917C142.864 23.3375 144.253 22.2785 146.006 21.5146C147.777 20.7507 149.748 20.3687 151.918 20.3687C155.216 20.3687 157.847 21.2021 159.808 22.8687C161.77 24.5181 162.777 26.8444 162.829 29.8479V42.5562C162.829 45.091 163.185 47.1135 163.897 48.624V49.0667H157.439ZM150.485 44.5094C151.735 44.5094 152.907 44.2056 154.001 43.5979C155.112 42.9903 155.945 42.1743 156.501 41.15V35.8375H153.09C150.746 35.8375 148.984 36.2455 147.803 37.0615C146.623 37.8774 146.032 39.0319 146.032 40.525C146.032 41.7403 146.432 42.7125 147.23 43.4417C148.046 44.1535 149.131 44.5094 150.485 44.5094Z" fill="white"/>
<path d="M175.329 20.8896L175.511 24.1448C177.595 21.6274 180.329 20.3687 183.715 20.3687C189.583 20.3687 192.569 23.7281 192.673 30.4469V49.0667H186.345V30.8115C186.345 29.0233 185.954 27.7038 185.173 26.8531C184.409 25.9851 183.15 25.551 181.397 25.551C178.845 25.551 176.944 26.7056 175.694 29.0146V49.0667H169.366V20.8896H175.329Z" fill="white"/>
<path d="M205.017 20.8896L205.199 24.1448C207.282 21.6274 210.017 20.3687 213.402 20.3687C219.27 20.3687 222.256 23.7281 222.36 30.4469V49.0667H216.032V30.8115C216.032 29.0233 215.642 27.7038 214.86 26.8531C214.097 25.9851 212.838 25.551 211.084 25.551C208.532 25.551 206.631 26.7056 205.381 29.0146V49.0667H199.053V20.8896H205.017Z" fill="white"/>
<path d="M241.241 49.5875C237.23 49.5875 233.975 48.3288 231.475 45.8115C228.992 43.2767 227.751 39.9087 227.751 35.7073V34.926C227.751 32.1135 228.289 29.6049 229.366 27.4C230.459 25.1778 231.987 23.4503 233.949 22.2177C235.911 20.9851 238.098 20.3687 240.511 20.3687C244.348 20.3687 247.308 21.5927 249.392 24.0406C251.492 26.4885 252.543 29.9521 252.543 34.4312V36.9833H234.131C234.322 39.3097 235.095 41.15 236.449 42.5042C237.82 43.8583 239.539 44.5354 241.605 44.5354C244.505 44.5354 246.866 43.3635 248.689 41.0198L252.1 44.275C250.972 45.959 249.461 47.2698 247.569 48.2073C245.694 49.1274 243.584 49.5875 241.241 49.5875ZM240.485 25.4469C238.749 25.4469 237.343 26.0545 236.267 27.2698C235.208 28.4851 234.531 30.1778 234.235 32.3479H246.293V31.8792C246.154 29.7611 245.59 28.1639 244.6 27.0875C243.61 25.9937 242.239 25.4469 240.485 25.4469Z" fill="white"/>
<path d="M272.23 26.6708C271.397 26.5319 270.537 26.4625 269.652 26.4625C266.753 26.4625 264.8 27.5736 263.793 29.7958V49.0667H257.465V20.8896H263.506L263.662 24.0406C265.19 21.5927 267.308 20.3687 270.017 20.3687C270.919 20.3687 271.666 20.4903 272.256 20.7333L272.23 26.6708Z" fill="white"/>
<path fill-rule="evenodd" clip-rule="evenodd" d="M60.9962 3.00701L3.05567 36.4234C3.03054 36.4379 3.01433 36.4498 3.00467 36.4578L14.5525 41.3013L49.0464 10.9109C49.0491 10.9086 49.0517 10.9062 49.0543 10.9039C52.5136 7.83673 57.3649 12.5347 54.4336 16.0944C54.4328 16.0954 54.432 16.0964 54.4312 16.0974L25.0011 51.9424V60.9291C25.0011 60.9556 25.0027 60.9754 25.0044 60.9892L34.3521 49.6136L51.9881 56.9997C51.9881 56.9997 51.9881 56.9997 51.9881 56.9997C51.9911 56.998 51.9942 56.9964 51.996 56.9949C51.9962 56.9939 51.9965 56.9926 51.9968 56.991C51.9969 56.9905 51.997 56.9901 51.9971 56.9895L60.9962 3.00701C60.9964 3.00715 60.9959 3.00687 60.9962 3.00701ZM24.9875 60.9889C24.9875 60.9889 24.9878 60.9891 24.9884 60.9896L24.9875 60.9889ZM22.0011 50.8686L52.1168 14.1885C52.7044 13.4761 51.7293 12.5388 51.0417 13.1512L15.1254 44.7948L1.83644 39.221C-0.413801 38.2712 -0.701332 35.1218 1.56141 33.822L59.5051 0.40376C61.6679 -0.845989 64.3806 0.978644 63.9556 3.50314L54.9546 57.4923C54.6296 59.4044 52.6044 60.5167 50.8292 59.7668L35.2525 53.2431L27.3142 62.9037C25.564 65.0408 22.0011 63.8785 22.0011 60.9291V50.8686Z" fill="white"/>
</svg>
