<svg width="18" height="14" viewBox="0 0 18 14" fill="none" xmlns="http://www.w3.org/2000/svg">
<path d="M3.375 0.25H6.32812C6.56016 0.25 6.75 0.439844 6.75 0.671875V1.51562C6.75 1.74766 6.56016 1.9375 6.32812 1.9375H3.375C2.44336 1.9375 1.6875 2.69336 1.6875 3.625V10.375C1.6875 11.3066 2.44336 12.0625 3.375 12.0625H6.32812C6.56016 12.0625 6.75 12.2523 6.75 12.4844V13.3281C6.75 13.5602 6.56016 13.75 6.32812 13.75H3.375C1.51172 13.75 0 12.2383 0 10.375V3.625C0 1.76172 1.51172 0.25 3.375 0.25ZM11.4996 0.935547L10.8105 1.62461C10.6418 1.79336 10.6453 2.06406 10.8176 2.22578L14.7937 6.08594H6.04688C5.81484 6.08594 5.625 6.27578 5.625 6.50781V7.49219C5.625 7.72422 5.81484 7.91406 6.04688 7.91406H14.7937L10.8176 11.7707C10.6488 11.9359 10.6453 12.2066 10.8105 12.3719L11.4996 13.0609C11.6648 13.2262 11.932 13.2262 12.0973 13.0609L17.877 7.29531C18.0422 7.13008 18.0422 6.86289 17.877 6.69766L12.0973 0.932031C11.932 0.770313 11.6648 0.770312 11.4996 0.935547Z" fill="white"/>
</svg>
